<svg width="1920" height="2219" viewBox="0 0 1920 2219" fill="none" xmlns="http://www.w3.org/2000/svg">
<g clip-path="url(#clip0_2_224)">
<path d="M0 -31H1949V2219H0V-31Z" fill="#030A1D"/>
<g filter="url(#filter0_f_2_224)">
<ellipse cx="843.362" cy="366.127" rx="843.362" ry="366.127" transform="matrix(0.840558 -0.541721 0.517865 0.855462 117 750.734)" fill="url(#paint0_radial_2_224)"/>
</g>
<path d="M1277.87 415.236C1286.83 430.034 1288.6 448.539 1284.06 469.384C1279.52 490.233 1268.68 513.388 1252.47 537.426C1220.05 585.502 1166.21 637.028 1098.62 680.587C1031.04 724.145 962.541 751.462 906.447 760.431C878.4 764.915 853.478 764.808 833.329 759.87C813.184 754.932 797.843 745.173 788.885 730.375C779.927 715.578 778.158 697.072 782.695 676.227C787.233 655.379 798.074 632.224 814.284 608.185C846.703 560.11 900.544 508.583 968.131 465.025C1035.72 421.467 1104.21 394.149 1160.31 385.181C1188.35 380.696 1213.28 380.803 1233.43 385.742C1253.57 390.68 1268.91 400.438 1277.87 415.236Z" stroke="url(#paint1_linear_2_224)" stroke-opacity="0.4" stroke-linejoin="round"/>
<path d="M1455.48 350.947C1470.05 375.015 1472.91 405.091 1465.55 438.925C1458.18 472.761 1440.59 510.321 1414.31 549.295C1361.75 627.243 1274.47 710.767 1164.92 781.369C1055.37 851.971 944.333 896.257 853.387 910.798C807.912 918.069 767.484 917.899 734.784 909.884C702.087 901.869 677.148 886.02 662.578 861.952C648.008 837.885 645.145 807.808 652.509 773.975C659.874 740.138 677.462 702.579 703.744 663.604C756.307 585.656 843.589 502.132 953.138 431.53C1062.69 360.928 1173.72 316.643 1264.67 302.101C1310.14 294.831 1350.57 295 1383.27 303.015C1415.97 311.03 1440.91 326.879 1455.48 350.947Z" stroke="url(#paint2_linear_2_224)" stroke-opacity="0.4" stroke-linejoin="round"/>
<path d="M1620.49 282.785C1640.67 316.117 1644.62 357.757 1634.43 404.57C1624.24 451.386 1599.91 503.34 1563.56 557.241C1490.87 665.041 1370.17 780.542 1218.69 878.17C1067.21 975.797 913.661 1037.04 787.884 1057.15C724.994 1067.21 669.071 1066.97 623.827 1055.88C578.586 1044.79 544.055 1022.86 523.877 989.527C503.7 956.195 499.744 914.555 509.933 867.742C520.123 820.926 544.454 768.972 580.801 715.071C653.495 607.271 774.194 491.77 925.677 394.143C1077.16 296.515 1230.71 235.272 1356.48 215.162C1419.37 205.107 1475.3 205.339 1520.54 216.429C1565.78 227.518 1600.31 249.454 1620.49 282.785Z" stroke="url(#paint3_linear_2_224)" stroke-opacity="0.4" stroke-linejoin="round"/>
<g filter="url(#filter1_f_2_224)">
<ellipse cx="1032.5" cy="564.5" rx="271.5" ry="280.5" fill="url(#paint4_radial_2_224)"/>
</g>
<g filter="url(#filter2_f_2_224)">
<ellipse cx="1031.5" cy="563.5" rx="56.5" ry="57.5" fill="#B75FF3"/>
</g>
<path opacity="0.8" fill-rule="evenodd" clip-rule="evenodd" d="M1683.81 356.171L1616.04 287.6L1691.12 348.089C1692.03 348.333 1692.89 348.788 1693.63 349.459C1696.13 351.725 1696.32 355.591 1694.06 358.094C1691.79 360.597 1687.93 360.79 1685.42 358.524C1684.68 357.854 1684.14 357.044 1683.81 356.171Z" fill="white"/>
<path fill-rule="evenodd" clip-rule="evenodd" d="M209.638 1157.38L334.37 1031.1L217.623 1164.8C216.889 1166.21 215.881 1167.65 214.626 1169C210.389 1173.55 204.949 1175.39 202.477 1173.09C200.004 1170.79 201.435 1165.23 205.672 1160.67C206.925 1159.32 208.283 1158.22 209.638 1157.38Z" fill="white" fill-opacity="0.8"/>
<path fill-rule="evenodd" clip-rule="evenodd" d="M1145.07 1744.98L1210.1 1679.14L1149.23 1748.84C1148.85 1749.58 1148.32 1750.33 1147.67 1751.03C1145.46 1753.41 1142.62 1754.36 1141.33 1753.16C1140.05 1751.96 1140.79 1749.07 1143 1746.69C1143.65 1745.99 1144.36 1745.41 1145.07 1744.98Z" fill="white" fill-opacity="0.8"/>
<path opacity="0.8" d="M1708.21 1229.1C1708.4 1224.76 1714.17 1223.41 1716.27 1227.22L1719.81 1233.65C1720.6 1235.07 1722.11 1235.93 1723.73 1235.87L1728.94 1235.7C1733.64 1235.53 1735.15 1241.96 1730.86 1243.91L1726.11 1246.06C1724.64 1246.73 1723.67 1248.17 1723.6 1249.79L1723.28 1257.13C1723.09 1261.47 1717.32 1262.82 1715.22 1259.02L1711.68 1252.58C1710.89 1251.17 1709.38 1250.31 1707.77 1250.36L1702.55 1250.54C1697.85 1250.7 1696.34 1244.27 1700.63 1242.33L1705.38 1240.17C1706.85 1239.5 1707.82 1238.06 1707.9 1236.45L1708.21 1229.1Z" fill="white"/>
<path opacity="0.8" d="M1008.21 295.104C1008.4 290.764 1014.17 289.412 1016.27 293.217L1019.81 299.652C1020.6 301.071 1022.11 301.929 1023.73 301.874L1028.94 301.695C1033.64 301.534 1035.15 307.964 1030.86 309.908L1026.11 312.064C1024.64 312.733 1023.67 314.174 1023.6 315.792L1023.28 323.133C1023.09 327.473 1017.32 328.824 1015.22 325.02L1011.68 318.584C1010.89 317.166 1009.38 316.307 1007.77 316.363L1002.55 316.542C997.85 316.703 996.344 310.272 1000.63 308.328L1005.38 306.172C1006.85 305.504 1007.82 304.063 1007.9 302.445L1008.21 295.104Z" fill="white"/>
<path opacity="0.8" d="M535.595 390.26C537.975 388.165 541.602 390.517 540.66 393.545L539.067 398.666C538.715 399.795 539.028 401.025 539.875 401.848L542.606 404.502C545.068 406.895 542.445 410.939 539.256 409.668L535.718 408.257C534.621 407.82 533.371 408.036 532.484 408.817L528.458 412.362C526.079 414.457 522.451 412.104 523.393 409.077L524.987 403.956C525.338 402.827 525.026 401.597 524.179 400.774L521.448 398.12C518.986 395.727 521.608 391.682 524.798 392.954L528.335 394.365C529.432 394.802 530.682 394.586 531.569 393.804L535.595 390.26Z" fill="white"/>
<path opacity="0.8" d="M127.938 130.427C130.318 128.332 133.946 130.684 133.003 133.712L131.41 138.833C131.059 139.961 131.371 141.191 132.218 142.014L134.949 144.668C137.411 147.061 134.788 151.106 131.599 149.834L128.062 148.424C126.965 147.986 125.714 148.203 124.827 148.984L120.802 152.528C118.422 154.623 114.794 152.271 115.736 149.243L117.33 144.122C117.681 142.994 117.369 141.764 116.522 140.941L113.791 138.287C111.329 135.894 113.952 131.849 117.141 133.121L120.678 134.531C121.775 134.969 123.025 134.752 123.913 133.971L127.938 130.427Z" fill="white"/>
<g style="mix-blend-mode:hard-light" opacity="0.6" filter="url(#filter3_f_2_224)">
<ellipse cx="234.255" cy="235.505" rx="234.255" ry="235.505" transform="matrix(0.865146 0.50152 -0.493632 0.869671 1776.51 -314)" fill="url(#paint5_radial_2_224)"/>
</g>
<ellipse cx="83.7356" cy="83.2633" rx="83.7356" ry="83.2633" transform="matrix(-0.477295 0.878743 -0.874466 -0.485086 2015.56 -6.22021)" fill="url(#paint6_linear_2_224)"/>
<path opacity="0.8" fill-rule="evenodd" clip-rule="evenodd" d="M495.806 1885.26L416.833 1864.12L497.311 1874.51C498.059 1874.23 498.874 1874.15 499.702 1874.32C502.498 1874.87 504.385 1878.02 503.918 1881.35C503.451 1884.68 500.806 1886.93 498.01 1886.38C497.184 1886.21 496.436 1885.82 495.806 1885.26Z" fill="white"/>
<path opacity="0.8" d="M1747 1669.07C1745.16 1665.31 1748.63 1661.06 1751.83 1663.13L1757.26 1666.64C1758.45 1667.41 1759.91 1667.32 1761.03 1666.4L1764.63 1663.43C1767.88 1660.76 1771.86 1665.36 1769.71 1669.31L1767.33 1673.69C1766.59 1675.04 1766.56 1676.78 1767.24 1678.18L1770.34 1684.53C1772.18 1688.29 1768.71 1692.54 1765.51 1690.47L1760.08 1686.97C1758.89 1686.19 1757.43 1686.29 1756.31 1687.21L1752.71 1690.17C1749.46 1692.85 1745.48 1688.25 1747.63 1684.3L1750.01 1679.92C1750.75 1678.56 1750.78 1676.82 1750.1 1675.42L1747 1669.07Z" fill="white"/>
</g>
<defs>
<filter id="filter0_f_2_224" x="201.504" y="-26.8967" width="1627.99" height="1267.94" filterUnits="userSpaceOnUse" color-interpolation-filters="sRGB">
<feFlood flood-opacity="0" result="BackgroundImageFix"/>
<feBlend mode="normal" in="SourceGraphic" in2="BackgroundImageFix" result="shape"/>
<feGaussianBlur stdDeviation="40" result="effect1_foregroundBlur_2_224"/>
</filter>
<filter id="filter1_f_2_224" x="716" y="239" width="633" height="651" filterUnits="userSpaceOnUse" color-interpolation-filters="sRGB">
<feFlood flood-opacity="0" result="BackgroundImageFix"/>
<feBlend mode="normal" in="SourceGraphic" in2="BackgroundImageFix" result="shape"/>
<feGaussianBlur stdDeviation="22.5" result="effect1_foregroundBlur_2_224"/>
</filter>
<filter id="filter2_f_2_224" x="935" y="466" width="193" height="195" filterUnits="userSpaceOnUse" color-interpolation-filters="sRGB">
<feFlood flood-opacity="0" result="BackgroundImageFix"/>
<feBlend mode="normal" in="SourceGraphic" in2="BackgroundImageFix" result="shape"/>
<feGaussianBlur stdDeviation="20" result="effect1_foregroundBlur_2_224"/>
</filter>
<filter id="filter3_f_2_224" x="1584.24" y="-272.86" width="557.36" height="562.31" filterUnits="userSpaceOnUse" color-interpolation-filters="sRGB">
<feFlood flood-opacity="0" result="BackgroundImageFix"/>
<feBlend mode="normal" in="SourceGraphic" in2="BackgroundImageFix" result="shape"/>
<feGaussianBlur stdDeviation="22.5" result="effect1_foregroundBlur_2_224"/>
</filter>
<radialGradient id="paint0_radial_2_224" cx="0" cy="0" r="1" gradientUnits="userSpaceOnUse" gradientTransform="translate(843.362 366.127) rotate(90) scale(412.483 950.14)">
<stop stop-color="#B75FF3"/>
<stop offset="1" stop-color="#7850E9" stop-opacity="0"/>
</radialGradient>
<linearGradient id="paint1_linear_2_224" x1="967.872" y1="464.597" x2="1104.86" y2="677.16" gradientUnits="userSpaceOnUse">
<stop stop-color="#AC48BD"/>
<stop offset="1" stop-color="#F9F9F9"/>
</linearGradient>
<linearGradient id="paint2_linear_2_224" x1="952.879" y1="431.102" x2="1174.87" y2="775.551" gradientUnits="userSpaceOnUse">
<stop stop-color="#AC48BD"/>
<stop offset="1" stop-color="#F9F9F9"/>
</linearGradient>
<linearGradient id="paint3_linear_2_224" x1="925.418" y1="393.715" x2="1232.35" y2="869.961" gradientUnits="userSpaceOnUse">
<stop stop-color="#AC48BD"/>
<stop offset="1" stop-color="#F9F9F9"/>
</linearGradient>
<radialGradient id="paint4_radial_2_224" cx="0" cy="0" r="1" gradientUnits="userSpaceOnUse" gradientTransform="translate(1032.5 564.5) rotate(90) scale(316.014 305.874)">
<stop stop-color="#AC48BD" stop-opacity="0.53"/>
<stop offset="1" stop-color="#50E9E9" stop-opacity="0"/>
</radialGradient>
<radialGradient id="paint5_radial_2_224" cx="0" cy="0" r="1" gradientUnits="userSpaceOnUse" gradientTransform="translate(234.255 235.505) rotate(90) scale(265.322 263.914)">
<stop stop-color="#E3E711"/>
<stop offset="1" stop-color="#FDA85B" stop-opacity="0"/>
</radialGradient>
<linearGradient id="paint6_linear_2_224" x1="167.471" y1="82.6643" x2="7.22898" y2="82.6643" gradientUnits="userSpaceOnUse">
<stop stop-color="#E3E711"/>
<stop offset="1" stop-color="#EC7053"/>
</linearGradient>
<clipPath id="clip0_2_224">
<rect width="1920" height="2219" fill="white"/>
</clipPath>
</defs>
</svg>
