<svg width="1920" height="2219" viewBox="0 0 1920 2219" fill="none" xmlns="http://www.w3.org/2000/svg">
<g clip-path="url(#clip0_2_224)">
<path d="M0 -31H1949V2219H0V-31Z" fill="#030A1D"/>
<g filter="url(#filter0_f_2_224)">
<ellipse cx="843.362" cy="366.127" rx="843.362" ry="366.127" transform="matrix(0.840558 -0.541721 0.517865 0.855462 66 1231.73)" fill="url(#paint0_radial_2_224)"/>
</g>
<path d="M1226.87 896.236C1235.83 911.034 1237.6 929.539 1233.06 950.384C1228.52 971.233 1217.68 994.388 1201.47 1018.43C1169.05 1066.5 1115.21 1118.03 1047.62 1161.59C980.037 1205.15 911.541 1232.46 855.447 1241.43C827.4 1245.92 802.478 1245.81 782.329 1240.87C762.184 1235.93 746.843 1226.17 737.885 1211.38C728.927 1196.58 727.158 1178.07 731.695 1157.23C736.233 1136.38 747.074 1113.22 763.284 1089.19C795.703 1041.11 849.544 989.583 917.131 946.025C984.718 902.467 1053.21 875.149 1109.31 866.181C1137.35 861.696 1162.28 861.803 1182.43 866.742C1202.57 871.68 1217.91 881.438 1226.87 896.236Z" stroke="url(#paint1_linear_2_224)" stroke-opacity="0.4" stroke-linejoin="round"/>
<path d="M1404.48 831.947C1419.05 856.015 1421.91 886.091 1414.55 919.925C1407.18 953.761 1389.59 991.321 1363.31 1030.3C1310.75 1108.24 1223.47 1191.77 1113.92 1262.37C1004.37 1332.97 893.333 1377.26 802.387 1391.8C756.912 1399.07 716.484 1398.9 683.784 1390.88C651.087 1382.87 626.148 1367.02 611.578 1342.95C597.008 1318.88 594.145 1288.81 601.509 1254.97C608.874 1221.14 626.462 1183.58 652.744 1144.6C705.307 1066.66 792.589 983.132 902.138 912.53C1011.69 841.928 1122.72 797.643 1213.67 783.101C1259.14 775.831 1299.57 776 1332.27 784.015C1364.97 792.03 1389.91 807.879 1404.48 831.947Z" stroke="url(#paint2_linear_2_224)" stroke-opacity="0.4" stroke-linejoin="round"/>
<path d="M1569.49 763.785C1589.67 797.117 1593.62 838.757 1583.43 885.57C1573.24 932.386 1548.91 984.34 1512.56 1038.24C1439.87 1146.04 1319.17 1261.54 1167.69 1359.17C1016.21 1456.8 862.661 1518.04 736.884 1538.15C673.994 1548.21 618.071 1547.97 572.827 1536.88C527.586 1525.79 493.055 1503.86 472.877 1470.53C452.7 1437.2 448.744 1395.55 458.933 1348.74C469.123 1301.93 493.454 1249.97 529.801 1196.07C602.495 1088.27 723.194 972.77 874.677 875.143C1026.16 777.515 1179.71 716.272 1305.48 696.162C1368.37 686.107 1424.3 686.339 1469.54 697.429C1514.78 708.518 1549.31 730.454 1569.49 763.785Z" stroke="url(#paint3_linear_2_224)" stroke-opacity="0.4" stroke-linejoin="round"/>
<g filter="url(#filter1_f_2_224)">
<ellipse cx="981.5" cy="1045.5" rx="271.5" ry="280.5" fill="url(#paint4_radial_2_224)"/>
</g>
<g filter="url(#filter2_f_2_224)">
<ellipse cx="980.5" cy="1044.5" rx="56.5" ry="57.5" fill="#B75FF3"/>
</g>
<path opacity="0.8" fill-rule="evenodd" clip-rule="evenodd" d="M1683.81 356.171L1616.04 287.6L1691.12 348.089C1692.03 348.333 1692.89 348.788 1693.63 349.459C1696.13 351.725 1696.32 355.591 1694.06 358.094C1691.79 360.597 1687.93 360.79 1685.42 358.524C1684.68 357.854 1684.14 357.044 1683.81 356.171Z" fill="white"/>
<path fill-rule="evenodd" clip-rule="evenodd" d="M209.638 1157.38L334.37 1031.1L217.623 1164.8C216.889 1166.21 215.881 1167.65 214.626 1169C210.389 1173.55 204.949 1175.39 202.477 1173.09C200.004 1170.79 201.435 1165.23 205.672 1160.67C206.925 1159.32 208.283 1158.22 209.638 1157.38Z" fill="white" fill-opacity="0.8"/>
<path fill-rule="evenodd" clip-rule="evenodd" d="M1145.07 1744.98L1210.1 1679.14L1149.23 1748.84C1148.85 1749.58 1148.32 1750.33 1147.67 1751.03C1145.46 1753.41 1142.62 1754.36 1141.33 1753.16C1140.05 1751.96 1140.79 1749.07 1143 1746.69C1143.65 1745.99 1144.36 1745.41 1145.07 1744.98Z" fill="white" fill-opacity="0.8"/>
<path opacity="0.8" d="M1708.21 1229.1C1708.4 1224.76 1714.17 1223.41 1716.27 1227.22L1719.81 1233.65C1720.6 1235.07 1722.11 1235.93 1723.73 1235.87L1728.94 1235.7C1733.64 1235.53 1735.15 1241.96 1730.86 1243.91L1726.11 1246.06C1724.64 1246.73 1723.67 1248.17 1723.6 1249.79L1723.28 1257.13C1723.09 1261.47 1717.32 1262.82 1715.22 1259.02L1711.68 1252.58C1710.89 1251.17 1709.38 1250.31 1707.77 1250.36L1702.55 1250.54C1697.85 1250.7 1696.34 1244.27 1700.63 1242.33L1705.38 1240.17C1706.85 1239.5 1707.82 1238.06 1707.9 1236.45L1708.21 1229.1Z" fill="white"/>
<path opacity="0.8" d="M1008.21 295.104C1008.4 290.764 1014.17 289.412 1016.27 293.217L1019.81 299.652C1020.6 301.071 1022.11 301.929 1023.73 301.874L1028.94 301.695C1033.64 301.534 1035.15 307.964 1030.86 309.908L1026.11 312.064C1024.64 312.733 1023.67 314.174 1023.6 315.792L1023.28 323.133C1023.09 327.473 1017.32 328.824 1015.22 325.02L1011.68 318.584C1010.89 317.166 1009.38 316.307 1007.77 316.363L1002.55 316.542C997.85 316.703 996.344 310.272 1000.63 308.328L1005.38 306.172C1006.85 305.504 1007.82 304.063 1007.9 302.445L1008.21 295.104Z" fill="white"/>
<path opacity="0.8" d="M535.595 390.26C537.975 388.165 541.602 390.517 540.66 393.545L539.067 398.666C538.715 399.795 539.028 401.025 539.875 401.848L542.606 404.502C545.068 406.895 542.445 410.939 539.256 409.668L535.718 408.257C534.621 407.82 533.371 408.036 532.484 408.817L528.458 412.362C526.079 414.457 522.451 412.104 523.393 409.077L524.987 403.956C525.338 402.827 525.026 401.597 524.179 400.774L521.448 398.12C518.986 395.727 521.608 391.682 524.798 392.954L528.335 394.365C529.432 394.802 530.682 394.586 531.569 393.804L535.595 390.26Z" fill="white"/>
<path opacity="0.8" d="M127.938 130.427C130.318 128.332 133.946 130.684 133.003 133.712L131.41 138.833C131.059 139.961 131.371 141.191 132.218 142.014L134.949 144.668C137.411 147.061 134.788 151.106 131.599 149.834L128.062 148.424C126.965 147.986 125.714 148.203 124.827 148.984L120.802 152.528C118.422 154.623 114.794 152.271 115.736 149.243L117.33 144.122C117.681 142.994 117.369 141.764 116.522 140.941L113.791 138.287C111.329 135.894 113.952 131.849 117.141 133.121L120.678 134.531C121.775 134.969 123.025 134.752 123.913 133.971L127.938 130.427Z" fill="white"/>
<g style="mix-blend-mode:hard-light" opacity="0.6" filter="url(#filter3_f_2_224)">
<ellipse cx="234.255" cy="235.505" rx="234.255" ry="235.505" transform="matrix(0.865146 0.50152 -0.493632 0.869671 1776.51 -314)" fill="url(#paint5_radial_2_224)"/>
</g>
<ellipse cx="83.7356" cy="83.2633" rx="83.7356" ry="83.2633" transform="matrix(-0.477295 0.878743 -0.874466 -0.485086 2015.56 -6.22021)" fill="url(#paint6_linear_2_224)"/>
<path opacity="0.8" fill-rule="evenodd" clip-rule="evenodd" d="M495.806 1885.26L416.833 1864.12L497.311 1874.51C498.059 1874.23 498.874 1874.15 499.702 1874.32C502.498 1874.87 504.385 1878.02 503.918 1881.35C503.451 1884.68 500.806 1886.93 498.01 1886.38C497.184 1886.21 496.436 1885.82 495.806 1885.26Z" fill="white"/>
<path opacity="0.8" d="M1747 1669.07C1745.16 1665.31 1748.63 1661.06 1751.83 1663.13L1757.26 1666.64C1758.45 1667.41 1759.91 1667.32 1761.03 1666.4L1764.63 1663.43C1767.88 1660.76 1771.86 1665.36 1769.71 1669.31L1767.33 1673.69C1766.59 1675.04 1766.56 1676.78 1767.24 1678.18L1770.34 1684.53C1772.18 1688.29 1768.71 1692.54 1765.51 1690.47L1760.08 1686.97C1758.89 1686.19 1757.43 1686.29 1756.31 1687.21L1752.71 1690.17C1749.46 1692.85 1745.48 1688.25 1747.63 1684.3L1750.01 1679.92C1750.75 1678.56 1750.78 1676.82 1750.1 1675.42L1747 1669.07Z" fill="white"/>
</g>
<defs>
<filter id="filter0_f_2_224" x="150.504" y="454.103" width="1627.99" height="1267.94" filterUnits="userSpaceOnUse" color-interpolation-filters="sRGB">
<feFlood flood-opacity="0" result="BackgroundImageFix"/>
<feBlend mode="normal" in="SourceGraphic" in2="BackgroundImageFix" result="shape"/>
<feGaussianBlur stdDeviation="40" result="effect1_foregroundBlur_2_224"/>
</filter>
<filter id="filter1_f_2_224" x="665" y="720" width="633" height="651" filterUnits="userSpaceOnUse" color-interpolation-filters="sRGB">
<feFlood flood-opacity="0" result="BackgroundImageFix"/>
<feBlend mode="normal" in="SourceGraphic" in2="BackgroundImageFix" result="shape"/>
<feGaussianBlur stdDeviation="22.5" result="effect1_foregroundBlur_2_224"/>
</filter>
<filter id="filter2_f_2_224" x="884" y="947" width="193" height="195" filterUnits="userSpaceOnUse" color-interpolation-filters="sRGB">
<feFlood flood-opacity="0" result="BackgroundImageFix"/>
<feBlend mode="normal" in="SourceGraphic" in2="BackgroundImageFix" result="shape"/>
<feGaussianBlur stdDeviation="20" result="effect1_foregroundBlur_2_224"/>
</filter>
<filter id="filter3_f_2_224" x="1584.24" y="-272.86" width="557.36" height="562.31" filterUnits="userSpaceOnUse" color-interpolation-filters="sRGB">
<feFlood flood-opacity="0" result="BackgroundImageFix"/>
<feBlend mode="normal" in="SourceGraphic" in2="BackgroundImageFix" result="shape"/>
<feGaussianBlur stdDeviation="22.5" result="effect1_foregroundBlur_2_224"/>
</filter>
<radialGradient id="paint0_radial_2_224" cx="0" cy="0" r="1" gradientUnits="userSpaceOnUse" gradientTransform="translate(843.362 366.127) rotate(90) scale(412.483 950.14)">
<stop stop-color="#B75FF3"/>
<stop offset="1" stop-color="#7850E9" stop-opacity="0"/>
</radialGradient>
<linearGradient id="paint1_linear_2_224" x1="916.872" y1="945.597" x2="1053.86" y2="1158.16" gradientUnits="userSpaceOnUse">
<stop stop-color="#AC48BD"/>
<stop offset="1" stop-color="#F9F9F9"/>
</linearGradient>
<linearGradient id="paint2_linear_2_224" x1="901.879" y1="912.102" x2="1123.87" y2="1256.55" gradientUnits="userSpaceOnUse">
<stop stop-color="#AC48BD"/>
<stop offset="1" stop-color="#F9F9F9"/>
</linearGradient>
<linearGradient id="paint3_linear_2_224" x1="874.418" y1="874.715" x2="1181.35" y2="1350.96" gradientUnits="userSpaceOnUse">
<stop stop-color="#AC48BD"/>
<stop offset="1" stop-color="#F9F9F9"/>
</linearGradient>
<radialGradient id="paint4_radial_2_224" cx="0" cy="0" r="1" gradientUnits="userSpaceOnUse" gradientTransform="translate(981.5 1045.5) rotate(90) scale(316.014 305.874)">
<stop stop-color="#AC48BD" stop-opacity="0.53"/>
<stop offset="1" stop-color="#50E9E9" stop-opacity="0"/>
</radialGradient>
<radialGradient id="paint5_radial_2_224" cx="0" cy="0" r="1" gradientUnits="userSpaceOnUse" gradientTransform="translate(234.255 235.505) rotate(90) scale(265.322 263.914)">
<stop stop-color="#E3E711"/>
<stop offset="1" stop-color="#FDA85B" stop-opacity="0"/>
</radialGradient>
<linearGradient id="paint6_linear_2_224" x1="167.471" y1="82.6643" x2="7.22898" y2="82.6643" gradientUnits="userSpaceOnUse">
<stop stop-color="#E3E711"/>
<stop offset="1" stop-color="#EC7053"/>
</linearGradient>
<clipPath id="clip0_2_224">
<rect width="1920" height="2219" fill="white"/>
</clipPath>
</defs>
</svg>
